<mxfile host="app.diagrams.net" modified="2021-12-23T09:48:27.048Z" agent="5.0 (Windows NT 10.0; Win64; x64) AppleWebKit/537.36 (KHTML, like Gecko) Chrome/96.0.4664.110 Safari/537.36" etag="7-GWH3xDIO7pZizQx0D_" version="15.9.6" type="github">
  <diagram id="Kjwd3CILpeYwG-SgkYPZ" name="Page-1">
    <mxGraphModel dx="1550" dy="835" grid="1" gridSize="10" guides="1" tooltips="1" connect="1" arrows="1" fold="1" page="1" pageScale="1" pageWidth="827" pageHeight="1169" math="0" shadow="0">
      <root>
        <mxCell id="0" />
        <mxCell id="1" parent="0" />
        <mxCell id="S3Ea_nT66mvSZB1d5xZl-11" value="" style="edgeStyle=orthogonalEdgeStyle;rounded=0;orthogonalLoop=1;jettySize=auto;html=1;" edge="1" parent="1" source="S3Ea_nT66mvSZB1d5xZl-1" target="S3Ea_nT66mvSZB1d5xZl-10">
          <mxGeometry relative="1" as="geometry" />
        </mxCell>
        <mxCell id="S3Ea_nT66mvSZB1d5xZl-1" value="warp" style="rounded=1;whiteSpace=wrap;html=1;" vertex="1" parent="1">
          <mxGeometry x="290" y="340" width="120" height="60" as="geometry" />
        </mxCell>
        <mxCell id="S3Ea_nT66mvSZB1d5xZl-2" value="Stream Multiprocessor" style="rounded=1;whiteSpace=wrap;html=1;" vertex="1" parent="1">
          <mxGeometry x="290" y="210" width="120" height="60" as="geometry" />
        </mxCell>
        <mxCell id="S3Ea_nT66mvSZB1d5xZl-5" style="edgeStyle=orthogonalEdgeStyle;rounded=0;orthogonalLoop=1;jettySize=auto;html=1;exitX=0.5;exitY=1;exitDx=0;exitDy=0;entryX=0.5;entryY=0;entryDx=0;entryDy=0;" edge="1" parent="1" source="S3Ea_nT66mvSZB1d5xZl-3" target="S3Ea_nT66mvSZB1d5xZl-4">
          <mxGeometry relative="1" as="geometry" />
        </mxCell>
        <mxCell id="S3Ea_nT66mvSZB1d5xZl-3" value="grid" style="ellipse;whiteSpace=wrap;html=1;" vertex="1" parent="1">
          <mxGeometry x="560" y="200" width="120" height="80" as="geometry" />
        </mxCell>
        <mxCell id="S3Ea_nT66mvSZB1d5xZl-7" style="edgeStyle=orthogonalEdgeStyle;rounded=0;orthogonalLoop=1;jettySize=auto;html=1;exitX=0;exitY=0.5;exitDx=0;exitDy=0;entryX=1;entryY=0.5;entryDx=0;entryDy=0;" edge="1" parent="1" source="S3Ea_nT66mvSZB1d5xZl-4" target="S3Ea_nT66mvSZB1d5xZl-1">
          <mxGeometry relative="1" as="geometry" />
        </mxCell>
        <mxCell id="S3Ea_nT66mvSZB1d5xZl-4" value="block" style="ellipse;whiteSpace=wrap;html=1;" vertex="1" parent="1">
          <mxGeometry x="560" y="330" width="120" height="80" as="geometry" />
        </mxCell>
        <mxCell id="S3Ea_nT66mvSZB1d5xZl-6" value="包含多个block" style="text;html=1;strokeColor=none;fillColor=none;align=center;verticalAlign=middle;whiteSpace=wrap;rounded=0;" vertex="1" parent="1">
          <mxGeometry x="630" y="290" width="90" height="30" as="geometry" />
        </mxCell>
        <mxCell id="S3Ea_nT66mvSZB1d5xZl-9" value="包含多个Cwarp, 由SM自动切分&amp;nbsp;" style="text;html=1;strokeColor=none;fillColor=none;align=center;verticalAlign=middle;whiteSpace=wrap;rounded=0;" vertex="1" parent="1">
          <mxGeometry x="430" y="340" width="110" height="30" as="geometry" />
        </mxCell>
        <mxCell id="S3Ea_nT66mvSZB1d5xZl-10" value="Thread" style="rounded=1;whiteSpace=wrap;html=1;" vertex="1" parent="1">
          <mxGeometry x="290" y="480" width="120" height="60" as="geometry" />
        </mxCell>
        <mxCell id="S3Ea_nT66mvSZB1d5xZl-12" value="最多有32threads，共享一套指令，SIMT的最小单元" style="text;html=1;strokeColor=none;fillColor=none;align=center;verticalAlign=middle;whiteSpace=wrap;rounded=0;" vertex="1" parent="1">
          <mxGeometry x="350" y="420" width="110" height="30" as="geometry" />
        </mxCell>
      </root>
    </mxGraphModel>
  </diagram>
</mxfile>
